<svg width="19" height="19" viewBox="0 0 19 19" fill="none" xmlns="http://www.w3.org/2000/svg">
<g clip-path="url(#clip0)">
<path d="M13.7326 0.162598H5.20016C2.42321 0.162598 0.164062 2.42175 0.164062 5.1987V13.7313C0.164062 16.5081 2.42321 18.7672 5.20016 18.7672H13.7327C16.5095 18.7672 18.7687 16.5081 18.7687 13.7313V5.1987C18.7687 2.42175 16.5095 0.162598 13.7326 0.162598V0.162598ZM9.46637 14.552C6.66131 14.552 4.37931 12.27 4.37931 9.4649C4.37931 6.65985 6.66131 4.37785 9.46637 4.37785C12.2714 4.37785 14.5534 6.65985 14.5534 9.4649C14.5534 12.27 12.2714 14.552 9.46637 14.552ZM14.6751 5.57754C13.8461 5.57754 13.1719 4.90332 13.1719 4.07438C13.1719 3.24543 13.8461 2.57107 14.6751 2.57107C15.504 2.57107 16.1784 3.24543 16.1784 4.07438C16.1784 4.90332 15.504 5.57754 14.6751 5.57754Z" fill="white"/>
<path d="M9.46708 5.46863C7.26357 5.46863 5.4707 7.26135 5.4707 9.465C5.4707 11.6685 7.26357 13.4614 9.46708 13.4614C11.6707 13.4614 13.4634 11.6685 13.4634 9.465C13.4634 7.26135 11.6707 5.46863 9.46708 5.46863Z" fill="white"/>
<path d="M14.6742 3.66187C14.4468 3.66187 14.2617 3.84696 14.2617 4.07435C14.2617 4.30174 14.4468 4.48683 14.6742 4.48683C14.9017 4.48683 15.0868 4.30188 15.0868 4.07435C15.0868 3.84682 14.9017 3.66187 14.6742 3.66187Z" fill="white"/>
</g>
<defs>
<clipPath id="clip0">
<rect width="18.6047" height="18.6047" fill="white" transform="translate(0.164062 0.162598)"/>
</clipPath>
</defs>
</svg>
