<svg width="19" height="12" viewBox="0 0 19 12" fill="none" xmlns="http://www.w3.org/2000/svg">
<g clip-path="url(#clip0)">
<path d="M18.6484 10.4703C18.6259 10.4219 18.605 10.3817 18.5855 10.3495C18.2631 9.76934 17.6469 9.05725 16.7375 8.21302L16.7183 8.19369L16.7086 8.18421L16.6989 8.17449H16.6892C16.2764 7.78137 16.015 7.51705 15.9056 7.38172C15.7053 7.12393 15.6604 6.86299 15.7699 6.5986C15.8472 6.39884 16.1377 5.97697 16.6407 5.33243C16.9052 4.99084 17.1148 4.71707 17.2695 4.51081C18.3855 3.02854 18.8693 2.08134 18.7209 1.66886L18.6632 1.57247C18.6245 1.51443 18.5245 1.46135 18.3634 1.41293C18.202 1.36462 17.9957 1.35663 17.744 1.38882L14.9576 1.40805C14.9125 1.39207 14.848 1.39356 14.764 1.41293C14.6802 1.4323 14.6382 1.44201 14.6382 1.44201L14.5897 1.46622L14.5512 1.4953C14.519 1.51454 14.4835 1.54836 14.4447 1.59671C14.4062 1.64489 14.374 1.70143 14.3482 1.76586C14.0449 2.54563 13.6999 3.27062 13.3128 3.94079C13.0742 4.34041 12.855 4.68674 12.6548 4.97998C12.4549 5.27311 12.2872 5.48909 12.1518 5.62753C12.0163 5.76611 11.8939 5.87713 11.7841 5.96099C11.6744 6.04489 11.5906 6.08034 11.5327 6.06737C11.4745 6.05441 11.4198 6.04154 11.368 6.02867C11.2778 5.97064 11.2052 5.89172 11.1504 5.79184C11.0955 5.69196 11.0585 5.56625 11.0391 5.41481C11.0199 5.26326 11.0085 5.13291 11.0052 5.02331C11.0022 4.91385 11.0036 4.75902 11.0101 4.55926C11.0168 4.3594 11.0199 4.22418 11.0199 4.15328C11.0199 3.90836 11.0246 3.64254 11.0342 3.35577C11.044 3.069 11.0519 2.84178 11.0585 2.67439C11.0651 2.50683 11.0681 2.32955 11.0681 2.14266C11.0681 1.95577 11.0567 1.8092 11.0342 1.70282C11.012 1.59657 10.9779 1.49344 10.9329 1.39346C10.8877 1.29358 10.8214 1.21632 10.7346 1.16147C10.6475 1.10669 10.5393 1.06322 10.4104 1.03092C10.0686 0.953621 9.63319 0.911807 9.10416 0.905306C7.90448 0.89244 7.13362 0.969838 6.79176 1.1374C6.65631 1.20819 6.53373 1.30492 6.42414 1.42729C6.308 1.56911 6.29181 1.64651 6.37564 1.65924C6.76272 1.71717 7.03674 1.85575 7.19801 2.07484L7.25613 2.19094C7.30134 2.2747 7.34648 2.423 7.39165 2.63562C7.43675 2.84825 7.46586 3.08345 7.47867 3.34111C7.51087 3.81162 7.51087 4.21439 7.47867 4.54945C7.44638 4.88463 7.41588 5.14557 7.38677 5.33247C7.35766 5.51936 7.31415 5.6708 7.25613 5.78676C7.19801 5.90276 7.15934 5.97366 7.13996 5.99939C7.12061 6.02512 7.10448 6.04134 7.09167 6.0477C7.00783 6.0798 6.92064 6.09615 6.83039 6.09615C6.74001 6.09615 6.63042 6.05099 6.50144 5.96072C6.37249 5.87046 6.23867 5.74647 6.09996 5.58856C5.96126 5.43062 5.80483 5.2099 5.63061 4.92638C5.45653 4.64286 5.2759 4.30777 5.08884 3.92112L4.93407 3.64071C4.83732 3.46032 4.70516 3.19765 4.53744 2.85295C4.36963 2.50811 4.2213 2.17455 4.09236 1.85233C4.04081 1.717 3.96338 1.61398 3.86019 1.54308L3.81176 1.51399C3.77957 1.48826 3.72789 1.46094 3.65699 1.43182C3.586 1.40274 3.51192 1.38188 3.43445 1.36905L0.783404 1.38828C0.512502 1.38828 0.328692 1.4496 0.231907 1.57206L0.193173 1.62999C0.173822 1.66226 0.164062 1.71379 0.164062 1.78472C0.164062 1.85562 0.183413 1.94263 0.222147 2.04566C0.609151 2.95439 1.03001 3.83079 1.48472 4.67499C1.93943 5.51919 2.33457 6.19921 2.6699 6.71446C3.00529 7.23007 3.34715 7.7167 3.69549 8.17412C4.04383 8.6317 4.2744 8.92494 4.38722 9.05377C4.50017 9.18283 4.58889 9.27932 4.65338 9.34375L4.8953 9.57571C5.05011 9.7304 5.27743 9.91567 5.57737 10.1315C5.87739 10.3475 6.20952 10.5601 6.57396 10.7697C6.93846 10.979 7.3625 11.1498 7.84633 11.2819C8.33008 11.4141 8.80093 11.4671 9.25893 11.4415H10.3716C10.5973 11.4221 10.7682 11.3512 10.8844 11.2288L10.9229 11.1803C10.9488 11.1419 10.9731 11.0821 10.9954 11.0017C11.0181 10.9212 11.0293 10.8324 11.0293 10.7359C11.0227 10.4588 11.0438 10.2091 11.0921 9.98684C11.1403 9.7646 11.1953 9.59704 11.2567 9.48419C11.3182 9.37145 11.3875 9.27631 11.4647 9.19918C11.542 9.12189 11.5971 9.07506 11.6294 9.05894C11.6616 9.04273 11.6872 9.03172 11.7066 9.02512C11.8614 8.97359 12.0436 9.0235 12.2534 9.17508C12.4631 9.32652 12.6597 9.51351 12.8437 9.73575C13.0275 9.9582 13.2484 10.2078 13.5063 10.4848C13.7645 10.762 13.9902 10.968 14.1836 11.1035L14.377 11.2195C14.5062 11.2969 14.6739 11.3678 14.8804 11.4322C15.0865 11.4966 15.267 11.5128 15.422 11.4806L17.8988 11.442C18.1438 11.442 18.3344 11.4014 18.4697 11.321C18.6051 11.2405 18.6856 11.1517 18.7116 11.0552C18.7375 10.9586 18.7389 10.849 18.7165 10.7264C18.6936 10.6041 18.6709 10.5186 18.6484 10.4703Z" fill="white"/>
</g>
<defs>
<clipPath id="clip0">
<rect width="18.6047" height="10.6312" fill="white" transform="translate(0.164062 0.883545)"/>
</clipPath>
</defs>
</svg>
