<svg width="19" height="16" viewBox="0 0 19 16" fill="none" xmlns="http://www.w3.org/2000/svg">
<g clip-path="url(#clip0)">
<path d="M18.7687 1.88243C18.0769 2.18592 17.3396 2.38708 16.571 2.48476C17.3617 2.01266 17.9652 1.2708 18.2489 0.376616C17.5117 0.816151 16.6978 1.12662 15.8303 1.29987C15.1303 0.554523 14.1327 0.0928955 13.0443 0.0928955C10.9327 0.0928955 9.23267 1.80685 9.23267 3.90801C9.23267 4.21034 9.25825 4.50103 9.32104 4.77778C6.15011 4.62313 3.3443 3.10336 1.45941 0.788244C1.13034 1.35917 0.937318 2.01266 0.937318 2.71615C0.937318 4.03708 1.61755 5.20801 2.6315 5.88592C2.01871 5.87429 1.41755 5.69638 0.908249 5.41615C0.908249 5.42778 0.908249 5.44289 0.908249 5.45801C0.908249 7.3115 2.23034 8.85103 3.96406 9.20568C3.6536 9.29057 3.31523 9.33127 2.96406 9.33127C2.71988 9.33127 2.47336 9.31731 2.24197 9.26615C2.73616 10.7766 4.13848 11.8871 5.80592 11.9231C4.50825 12.9382 2.86057 13.5499 1.07685 13.5499C0.764063 13.5499 0.464063 13.5359 0.164062 13.4975C1.8536 14.5871 3.85592 15.2092 6.01523 15.2092C13.0338 15.2092 16.871 9.39522 16.871 4.35569C16.871 4.18708 16.8652 4.02429 16.8571 3.86266C17.6141 3.32545 18.2501 2.65452 18.7687 1.88243Z" fill="white"/>
</g>
<defs>
<clipPath id="clip0">
<rect width="18.6047" height="15.1163" fill="white" transform="translate(0.164062 0.0928955)"/>
</clipPath>
</defs>
</svg>
